<mxfile host="65bd71144e" pages="1">
    <diagram id="mdCWrSYS0699DWWecfdA" name="第 1 页">
        <mxGraphModel dx="1411" dy="720" grid="1" gridSize="10" guides="1" tooltips="1" connect="1" arrows="1" fold="1" page="1" pageScale="1" pageWidth="827" pageHeight="1169" math="0" shadow="0">
            <root>
                <mxCell id="0"/>
                <mxCell id="1" parent="0"/>
                <mxCell id="4" value="" style="rounded=1;whiteSpace=wrap;html=1;strokeColor=#000000;" parent="1" vertex="1">
                    <mxGeometry x="45" y="20" width="965" height="670" as="geometry"/>
                </mxCell>
                <mxCell id="5" value="app" style="text;strokeColor=none;fillColor=none;html=1;fontSize=24;fontStyle=1;verticalAlign=middle;align=center;" parent="1" vertex="1">
                    <mxGeometry x="490" y="30" width="100" height="40" as="geometry"/>
                </mxCell>
                <mxCell id="57" value="静态代理" style="edgeStyle=orthogonalEdgeStyle;rounded=0;orthogonalLoop=1;jettySize=auto;html=1;startArrow=none;startFill=0;strokeColor=#000000;" parent="1" source="3" target="37" edge="1">
                    <mxGeometry x="0.5" y="-30" relative="1" as="geometry">
                        <Array as="points">
                            <mxPoint x="700" y="550"/>
                            <mxPoint x="700" y="550"/>
                        </Array>
                        <mxPoint x="30" y="-30" as="offset"/>
                    </mxGeometry>
                </mxCell>
                <mxCell id="3" value="" style="rounded=1;whiteSpace=wrap;html=1;" parent="1" vertex="1">
                    <mxGeometry x="490" y="100" width="450" height="390" as="geometry"/>
                </mxCell>
                <mxCell id="2" value="local_db" style="shape=cylinder;whiteSpace=wrap;html=1;boundedLbl=1;backgroundOutline=1;" parent="1" vertex="1">
                    <mxGeometry x="775.5" y="185" width="92" height="90" as="geometry"/>
                </mxCell>
                <mxCell id="85" style="edgeStyle=orthogonalEdgeStyle;rounded=0;orthogonalLoop=1;jettySize=auto;html=1;entryX=0;entryY=0.5;entryDx=0;entryDy=0;startArrow=none;startFill=0;strokeColor=#000000;" parent="1" source="11" target="37" edge="1">
                    <mxGeometry relative="1" as="geometry">
                        <Array as="points">
                            <mxPoint x="400" y="615"/>
                            <mxPoint x="400" y="615"/>
                        </Array>
                    </mxGeometry>
                </mxCell>
                <mxCell id="86" value="独立透明窗口打开" style="text;html=1;resizable=0;points=[];align=center;verticalAlign=middle;labelBackgroundColor=#ffffff;" parent="85" vertex="1" connectable="0">
                    <mxGeometry x="-0.2875" y="2" relative="1" as="geometry">
                        <mxPoint x="23" y="2" as="offset"/>
                    </mxGeometry>
                </mxCell>
                <mxCell id="11" value="" style="rounded=1;whiteSpace=wrap;html=1;" parent="1" vertex="1">
                    <mxGeometry x="100" y="100" width="260" height="550" as="geometry"/>
                </mxCell>
                <mxCell id="12" value="electron 前端" style="text;html=1;strokeColor=none;fillColor=none;align=center;verticalAlign=middle;whiteSpace=wrap;rounded=0;" parent="1" vertex="1">
                    <mxGeometry x="180" y="110" width="100" height="20" as="geometry"/>
                </mxCell>
                <mxCell id="27" style="edgeStyle=orthogonalEdgeStyle;rounded=0;orthogonalLoop=1;jettySize=auto;html=1;strokeColor=#000000;" parent="1" source="14" target="19" edge="1">
                    <mxGeometry relative="1" as="geometry">
                        <Array as="points">
                            <mxPoint x="822" y="690"/>
                            <mxPoint x="822" y="690"/>
                        </Array>
                    </mxGeometry>
                </mxCell>
                <mxCell id="47" value="弹幕等Socket" style="text;html=1;resizable=0;points=[];align=center;verticalAlign=middle;labelBackgroundColor=#ffffff;" parent="27" vertex="1" connectable="0">
                    <mxGeometry x="0.1043" y="2" relative="1" as="geometry">
                        <mxPoint x="12" y="-2" as="offset"/>
                    </mxGeometry>
                </mxCell>
                <mxCell id="14" value="bilibili 服务器" style="rounded=1;whiteSpace=wrap;html=1;" parent="1" vertex="1">
                    <mxGeometry x="60" y="730" width="960" height="60" as="geometry"/>
                </mxCell>
                <mxCell id="8" value="样式设置" style="rounded=1;whiteSpace=wrap;html=1;" parent="1" vertex="1">
                    <mxGeometry x="130" y="150" width="130" height="40" as="geometry"/>
                </mxCell>
                <mxCell id="16" value="本地服务器" style="text;html=1;" parent="1" vertex="1">
                    <mxGeometry x="660" y="110" width="90" height="30" as="geometry"/>
                </mxCell>
                <mxCell id="87" style="edgeStyle=orthogonalEdgeStyle;rounded=0;orthogonalLoop=1;jettySize=auto;html=1;entryX=0.145;entryY=-0.067;entryDx=0;entryDy=0;entryPerimeter=0;startArrow=classic;startFill=1;strokeColor=#000000;" parent="1" source="17" target="14" edge="1">
                    <mxGeometry relative="1" as="geometry"/>
                </mxCell>
                <mxCell id="17" value="录制" style="rounded=1;whiteSpace=wrap;html=1;" parent="1" vertex="1">
                    <mxGeometry x="136" y="560" width="125" height="40" as="geometry"/>
                </mxCell>
                <mxCell id="26" style="edgeStyle=orthogonalEdgeStyle;rounded=0;orthogonalLoop=1;jettySize=auto;html=1;strokeColor=#000000;" parent="1" source="18" target="60" edge="1">
                    <mxGeometry relative="1" as="geometry">
                        <Array as="points">
                            <mxPoint x="480" y="415"/>
                            <mxPoint x="480" y="415"/>
                        </Array>
                    </mxGeometry>
                </mxCell>
                <mxCell id="81" style="edgeStyle=orthogonalEdgeStyle;rounded=0;orthogonalLoop=1;jettySize=auto;html=1;startArrow=none;startFill=0;strokeColor=#000000;" parent="1" source="18" target="37" edge="1">
                    <mxGeometry relative="1" as="geometry">
                        <Array as="points">
                            <mxPoint x="565" y="550"/>
                            <mxPoint x="565" y="550"/>
                        </Array>
                    </mxGeometry>
                </mxCell>
                <mxCell id="18" value="wss" style="rounded=1;whiteSpace=wrap;html=1;" parent="1" vertex="1">
                    <mxGeometry x="520" y="370" width="90" height="93" as="geometry"/>
                </mxCell>
                <mxCell id="24" style="edgeStyle=orthogonalEdgeStyle;rounded=0;orthogonalLoop=1;jettySize=auto;html=1;strokeColor=#000000;" parent="1" source="19" target="2" edge="1">
                    <mxGeometry relative="1" as="geometry">
                        <Array as="points">
                            <mxPoint x="822" y="330"/>
                            <mxPoint x="822" y="330"/>
                        </Array>
                    </mxGeometry>
                </mxCell>
                <mxCell id="48" value="SocketData持久化" style="text;html=1;resizable=0;points=[];align=center;verticalAlign=middle;labelBackgroundColor=#ffffff;" parent="24" vertex="1" connectable="0">
                    <mxGeometry x="-0.2261" y="-29" relative="1" as="geometry">
                        <mxPoint x="-24" y="-24.5" as="offset"/>
                    </mxGeometry>
                </mxCell>
                <mxCell id="70" style="edgeStyle=orthogonalEdgeStyle;rounded=0;orthogonalLoop=1;jettySize=auto;html=1;startArrow=none;startFill=0;strokeColor=#000000;" parent="1" source="19" target="18" edge="1">
                    <mxGeometry relative="1" as="geometry">
                        <Array as="points">
                            <mxPoint x="822" y="417"/>
                        </Array>
                    </mxGeometry>
                </mxCell>
                <mxCell id="71" value="分发到前端" style="text;html=1;resizable=0;points=[];align=center;verticalAlign=middle;labelBackgroundColor=#ffffff;" parent="70" vertex="1" connectable="0">
                    <mxGeometry x="-0.0323" y="-2" relative="1" as="geometry">
                        <mxPoint x="14.5" as="offset"/>
                    </mxGeometry>
                </mxCell>
                <mxCell id="19" value="bilibili-ws" style="rounded=1;whiteSpace=wrap;html=1;" parent="1" vertex="1">
                    <mxGeometry x="760" y="396.5" width="125" height="40" as="geometry"/>
                </mxCell>
                <mxCell id="40" style="edgeStyle=orthogonalEdgeStyle;rounded=0;orthogonalLoop=1;jettySize=auto;html=1;strokeColor=#000000;" parent="1" source="30" target="18" edge="1">
                    <mxGeometry relative="1" as="geometry"/>
                </mxCell>
                <mxCell id="41" style="edgeStyle=orthogonalEdgeStyle;rounded=0;orthogonalLoop=1;jettySize=auto;html=1;strokeColor=#000000;" parent="1" source="30" target="2" edge="1">
                    <mxGeometry relative="1" as="geometry"/>
                </mxCell>
                <mxCell id="79" value="CRUD" style="text;html=1;resizable=0;points=[];align=center;verticalAlign=middle;labelBackgroundColor=#ffffff;" parent="41" vertex="1" connectable="0">
                    <mxGeometry x="-0.1776" y="1" relative="1" as="geometry">
                        <mxPoint x="14.5" y="1" as="offset"/>
                    </mxGeometry>
                </mxCell>
                <mxCell id="30" value="API&lt;br&gt;" style="rounded=1;whiteSpace=wrap;html=1;" parent="1" vertex="1">
                    <mxGeometry x="515" y="140" width="100" height="180" as="geometry"/>
                </mxCell>
                <mxCell id="37" value="弹幕页" style="rounded=1;whiteSpace=wrap;html=1;" parent="1" vertex="1">
                    <mxGeometry x="520" y="580" width="240" height="70" as="geometry"/>
                </mxCell>
                <mxCell id="33" style="edgeStyle=orthogonalEdgeStyle;rounded=0;orthogonalLoop=1;jettySize=auto;html=1;entryX=-0.01;entryY=0.144;entryDx=0;entryDy=0;exitX=1;exitY=0.5;exitDx=0;exitDy=0;entryPerimeter=0;strokeColor=#000000;" parent="1" source="8" target="30" edge="1">
                    <mxGeometry relative="1" as="geometry">
                        <Array as="points">
                            <mxPoint x="450" y="170"/>
                            <mxPoint x="515" y="171"/>
                            <mxPoint x="515" y="166"/>
                        </Array>
                    </mxGeometry>
                </mxCell>
                <mxCell id="51" value="样式设置 api -&amp;gt; wss" style="text;html=1;resizable=0;points=[];align=center;verticalAlign=middle;labelBackgroundColor=#ffffff;" parent="33" vertex="1" connectable="0">
                    <mxGeometry x="-0.1743" y="1" relative="1" as="geometry">
                        <mxPoint x="54.5" y="1" as="offset"/>
                    </mxGeometry>
                </mxCell>
                <mxCell id="59" style="edgeStyle=orthogonalEdgeStyle;rounded=0;orthogonalLoop=1;jettySize=auto;html=1;startArrow=none;startFill=0;strokeColor=#000000;" parent="1" source="52" target="30" edge="1">
                    <mxGeometry relative="1" as="geometry">
                        <Array as="points">
                            <mxPoint x="350" y="230"/>
                            <mxPoint x="350" y="230"/>
                        </Array>
                    </mxGeometry>
                </mxCell>
                <mxCell id="52" value="历史消息查询" style="rounded=1;whiteSpace=wrap;html=1;" parent="1" vertex="1">
                    <mxGeometry x="130" y="207.5" width="130" height="45" as="geometry"/>
                </mxCell>
                <mxCell id="72" style="edgeStyle=orthogonalEdgeStyle;rounded=0;orthogonalLoop=1;jettySize=auto;html=1;startArrow=none;startFill=0;strokeColor=#000000;entryX=0.02;entryY=0.828;entryDx=0;entryDy=0;entryPerimeter=0;" parent="1" source="53" target="30" edge="1">
                    <mxGeometry relative="1" as="geometry">
                        <mxPoint x="510" y="289" as="targetPoint"/>
                    </mxGeometry>
                </mxCell>
                <mxCell id="53" value="统计" style="rounded=1;whiteSpace=wrap;html=1;" parent="1" vertex="1">
                    <mxGeometry x="130" y="270" width="130" height="38" as="geometry"/>
                </mxCell>
                <mxCell id="54" value="投票" style="rounded=1;whiteSpace=wrap;html=1;" parent="1" vertex="1">
                    <mxGeometry x="136" y="430" width="94" height="80" as="geometry"/>
                </mxCell>
                <mxCell id="67" style="edgeStyle=orthogonalEdgeStyle;rounded=0;orthogonalLoop=1;jettySize=auto;html=1;entryX=1;entryY=0.5;entryDx=0;entryDy=0;startArrow=none;startFill=0;strokeColor=#000000;" parent="1" source="60" target="54" edge="1">
                    <mxGeometry relative="1" as="geometry">
                        <Array as="points">
                            <mxPoint x="270" y="470"/>
                            <mxPoint x="270" y="470"/>
                        </Array>
                    </mxGeometry>
                </mxCell>
                <mxCell id="78" style="edgeStyle=orthogonalEdgeStyle;rounded=0;orthogonalLoop=1;jettySize=auto;html=1;startArrow=none;startFill=0;strokeColor=#000000;" parent="1" source="60" target="76" edge="1">
                    <mxGeometry relative="1" as="geometry">
                        <Array as="points">
                            <mxPoint x="260" y="369"/>
                            <mxPoint x="260" y="369"/>
                        </Array>
                    </mxGeometry>
                </mxCell>
                <mxCell id="60" value="ws" style="rounded=1;whiteSpace=wrap;html=1;" parent="1" vertex="1">
                    <mxGeometry x="280" y="320" width="71" height="190" as="geometry"/>
                </mxCell>
                <mxCell id="76" value="抽奖" style="rounded=1;whiteSpace=wrap;html=1;" parent="1" vertex="1">
                    <mxGeometry x="136" y="329" width="94" height="80" as="geometry"/>
                </mxCell>
                <mxCell id="82" value="弹幕" style="text;html=1;strokeColor=none;fillColor=none;align=center;verticalAlign=middle;whiteSpace=wrap;rounded=0;" parent="1" vertex="1">
                    <mxGeometry x="525" y="511.5" width="40" height="20" as="geometry"/>
                </mxCell>
                <mxCell id="88" value="视频流" style="text;html=1;" parent="1" vertex="1">
                    <mxGeometry x="198.5" y="650" width="60" height="30" as="geometry"/>
                </mxCell>
                <mxCell id="90" style="edgeStyle=orthogonalEdgeStyle;rounded=0;orthogonalLoop=1;jettySize=auto;html=1;entryX=1;entryY=0.5;entryDx=0;entryDy=0;startArrow=none;startFill=0;strokeColor=#000000;endArrow=classic;endFill=1;" parent="1" source="89" target="37" edge="1">
                    <mxGeometry relative="1" as="geometry">
                        <Array as="points">
                            <mxPoint x="1080" y="615"/>
                            <mxPoint x="1080" y="615"/>
                        </Array>
                    </mxGeometry>
                </mxCell>
                <mxCell id="91" value="localhost:{PORT}" style="text;html=1;resizable=0;points=[];align=center;verticalAlign=middle;labelBackgroundColor=#ffffff;" parent="90" vertex="1" connectable="0">
                    <mxGeometry x="0.2308" y="2" relative="1" as="geometry">
                        <mxPoint x="45" y="-2" as="offset"/>
                    </mxGeometry>
                </mxCell>
                <mxCell id="89" value="OBS" style="rounded=1;whiteSpace=wrap;html=1;" parent="1" vertex="1">
                    <mxGeometry x="1060" y="463" width="100" height="217" as="geometry"/>
                </mxCell>
            </root>
        </mxGraphModel>
    </diagram>
</mxfile>